<svg xmlns="http://www.w3.org/2000/svg" viewBox="0 0 512 512"><path d="M222.609 272.696c9.22 0 16.696-7.475 16.696-16.696v-66.783c0-9.22-7.475-16.696-16.696-16.696h-66.783c-9.22 0-16.696 7.475-16.696 16.696s7.475 16.696 16.696 16.696h50.087v33.391h-50.087c-9.22 0-16.696 7.475-16.696 16.696v66.783c0 9.22 7.475 16.696 16.696 16.696h66.783c9.22 0 16.696-7.475 16.696-16.696s-7.475-16.696-16.696-16.696h-50.087v-33.391h50.087z"/><circle cx="89.044" cy="256" r="16.696"/><circle cx="422.957" cy="256" r="16.696"/><circle cx="256" cy="422.957" r="16.696"/><circle cx="256" cy="89.044" r="16.696"/><path d="M356.174 172.522c-9.22 0-16.696 7.475-16.696 16.696v50.087h-33.391v-50.087c0-9.22-7.475-16.696-16.696-16.696s-16.696 7.475-16.696 16.696V256c0 9.22 7.475 16.696 16.696 16.696h50.087v50.087c0 9.22 7.475 16.696 16.696 16.696 9.22 0 16.696-7.475 16.696-16.696V189.218c0-9.221-7.476-16.696-16.696-16.696z"/><path d="M495.304 239.304c-9.22 0-16.696 7.475-16.696 16.696 0 122.746-99.862 222.609-222.609 222.609S33.391 378.747 33.391 256 133.254 33.391 256 33.391c34.271 0 67.848 7.845 98.266 22.819l-15.462 15.462c-8.754 8.753-5.247 23.72 6.526 27.645l100.174 33.391c13.063 4.354 25.448-8.13 21.119-21.119L433.231 11.416C429.315-.331 414.362-3.885 405.586 4.89l-26.559 26.559C341.455 10.838 299.199 0 256 0 114.507 0 0 114.498 0 256c0 141.493 114.498 256 256 256 141.493 0 256-114.498 256-256 0-9.22-7.475-16.696-16.696-16.696zm-85.209-191.7l14.289 42.868-42.868-14.289 28.579-28.579z"/></svg>