<svg xmlns="http://www.w3.org/2000/svg" width="512" height="512"><path d="M467.292 239.001c-5.751-10.822-11.712-20.194-17.473-29.265-11.592-18.253-21.604-34.006-26.415-56.03-10.192-46.748-32.476-68.392-49.359-78.324-17.293-10.152-32.676-10.562-36.786-10.472-4.111-.09-19.493.32-36.777 10.472-14.553 8.552-33.106 25.805-44.478 60.311-11.382-34.506-29.935-51.759-44.488-60.311-9.322-5.481-18.083-8.121-24.824-9.382l-.004-.001c-7.757-46.168-60.405-65.142-62.859-66l-9.952 28.307c.396.142 34.909 12.779 42.351 39.244h-.001c-5.481 1.55-11.742 3.991-18.273 7.831-16.883 9.932-39.167 31.576-49.359 78.324-4.811 22.024-14.823 37.777-26.415 56.03-5.761 9.072-11.722 18.443-17.473 29.265-30.815 57.91-43.628 149.067 1.05 212.378 25.995 36.827 73.383 59.481 126.793 60.601.72.01 1.44.02 2.21.02.73 0 1.45-.01 2.21-.02 28.925-.61 56.09-7.541 79.034-19.623 22.954 12.092 50.129 19.013 79.064 19.623.72.01 1.45.02 2.21.02.73 0 1.45-.01 2.21-.02 53.369-1.12 100.758-23.774 126.742-60.601 20.644-29.245 29.015-64.421 29.015-99.518.002-40.906-11.37-81.693-27.953-112.859zM256.005 457.23c-8.562 6.171-18.243 11.302-28.795 15.273-15.413 5.801-32.656 9.092-50.829 9.472-1.16.02-2.25.02-3.251 0-43.878-.91-82.335-18.823-102.858-47.898-35.696-50.589-26.555-129.333.92-180.982 5.221-9.792 10.862-18.673 16.313-27.265 12.032-18.933 24.464-38.507 30.405-65.732 13.832-63.431 51.689-65.202 55.83-65.202.07 0 .13.01.18.01l.6.06 1.12-.07c.42-.02 41.327-1.71 55.93 65.202 1.98 9.092 4.691 17.323 7.871 24.964 4.751 11.472 10.562 21.604 16.563 31.296a854.067 854.067 0 005.961 9.472c2.731 4.291 5.511 8.662 8.252 13.182 2.74 4.521 5.461 9.182 8.061 14.082 27.485 51.649 36.627 130.393.92 180.982-6.21 8.792-14.052 16.563-23.193 23.154zm185.713-23.154c-20.514 29.075-58.97 46.988-102.818 47.898-1.16.02-2.25.02-3.241 0-18.183-.38-35.436-3.671-50.859-9.472 7.141-6.381 13.492-13.442 18.913-21.124 44.688-63.311 31.876-154.467 1.06-212.378-5.761-10.822-11.712-20.194-17.473-29.265-5.381-8.471-10.412-16.393-14.743-24.654 3.181-7.651 5.891-15.893 7.871-24.984 13.842-63.431 51.699-65.202 55.83-65.202.05 0 .09.01.13.01l.44.11 1.24-.11c.06 0 .12-.01.19-.01 4.141 0 41.997 1.78 55.83 65.202 5.941 27.225 18.373 46.798 30.405 65.732 2.731 4.301 5.501 8.661 8.241 13.182 2.75 4.521 5.461 9.182 8.071 14.083 27.488 51.649 36.619 130.393.913 180.982z" data-original="#000000" class="active-path" data-old_color="#000000" fill="#4A5568"/><path d="M240.152 265.066a112.68 112.68 0 00-7.661-9.622c-7.221-8.161-15.193-14.673-23.674-19.383-10.712-5.991-22.234-9.112-34.076-9.112-24.644 0-47.879 13.532-65.412 38.117-15.783 22.104-24.834 50.749-24.834 78.574 0 27.995 9.032 54.44 25.435 74.463 17.113 20.894 40.127 32.396 64.812 32.396a77.997 77.997 0 0029.205-5.651c9.112-3.651 17.663-9.032 25.395-16.013a99.365 99.365 0 0010.212-10.732c16.393-20.024 25.425-46.468 25.425-74.463-.003-27.825-9.044-56.47-24.827-78.574zM216.138 399.42c-7.101 8.581-15.843 14.993-25.545 18.363a47.788 47.788 0 01-15.853 2.711c-33.216 0-60.241-34.476-60.241-76.854 0-44.558 29.275-86.685 60.241-86.685 7.331 0 14.563 2.36 21.334 6.551 8.792 5.441 16.803 13.973 23.244 24.444 9.562 15.543 15.653 35.366 15.653 55.69 0 21.944-7.241 41.767-18.833 55.78z" data-original="#000000" class="active-path" data-old_color="#000000" fill="#4A5568"/></svg>