<svg xmlns="http://www.w3.org/2000/svg" width="512" height="512"><path d="M243.263 67.277c-13.524-5.552-31.183-8.609-49.721-8.609s-36.195 3.058-49.72 8.609c-23.961 9.836-27.539 24.237-27.539 31.947s3.578 22.112 27.539 31.948c13.524 5.552 31.182 8.609 49.72 8.609s36.196-3.058 49.721-8.609c23.961-9.836 27.539-24.238 27.539-31.948s-3.578-22.111-27.539-31.947zm-49.721 42.505c-25.104 0-41.017-6.521-46.074-10.558 5.058-4.036 20.971-10.557 46.074-10.557 25.104 0 41.017 6.521 46.075 10.557-5.059 4.037-20.971 10.558-46.075 10.558z" data-original="#000000" class="active-path" data-old_color="#000000" fill="#4A5568"/><path d="M195.791 0C145.506 0 97.995 9.532 62.01 26.842 22.532 45.83.791 72.373.791 101.58v308.84c0 29.207 21.741 55.75 61.219 74.738C97.995 502.468 145.506 512 195.791 512c50.285 0 97.796-9.532 133.781-26.842 21.601-10.39 37.878-23.046 48.202-37.158h133.435V0H195.791zm165 410.42c0 16.798-16.118 34.185-44.223 47.704C284.558 473.521 241.665 482 195.791 482c-7.28 0-14.484-.215-21.582-.636v-32.26h-30v29.153c-25.932-3.883-49.604-10.71-69.195-20.133-28.105-13.518-44.223-30.906-44.223-47.704V156.835c8.66 7.111 19.1 13.655 31.219 19.484 23.345 11.229 51.543 19.18 82.199 23.384v31.027h30v-28.167c7.12.392 14.32.598 21.582.598 50.285 0 97.796-9.532 133.781-26.841 12.119-5.829 22.559-12.373 31.219-19.484V410.42zm-44.223-261.136c-32.01 15.396-74.903 23.876-120.777 23.876-45.874 0-88.768-8.48-120.777-23.876-28.105-13.519-44.223-30.905-44.223-47.704 0-16.798 16.118-34.185 44.223-47.704C107.024 38.479 149.917 30 195.791 30c45.874 0 88.767 8.479 120.777 23.876 28.105 13.519 44.223 30.906 44.223 47.704 0 16.799-16.118 34.185-44.223 47.704zM481.209 418h-90.922c.329-2.505.504-5.031.504-7.58V101.58c0-27.624-19.458-52.86-54.965-71.58h145.383v388z" data-original="#000000" class="active-path" data-old_color="#000000" fill="#4A5568"/><path data-original="#000000" class="active-path" data-old_color="#000000" fill="#4A5568" d="M144.21 257.4h30v37.23h-30zm0 63.9h30v37.23h-30zm0 63.9h30v37.23h-30z"/></svg>