<svg xmlns="http://www.w3.org/2000/svg" viewBox="0 0 297 297" width="512" height="512"><path d="M287.054 36.753l-12.48-12.479a19.14 19.14 0 00-.571-.545l.013-.013C258.296 7.996 238.381.026 214.824.026c-42.551 0-93.891 26.938-140.859 73.905-33.875 33.873-58.135 71.245-68.312 105.23-11.567 38.626-5.309 71.414 18.097 94.82l13.038 13.038c6.42 6.419 15.254 9.954 24.874 9.955h.003c11.321 0 22.706-4.893 31.238-13.424L283.586 92.867c16.427-16.427 17.983-41.6 3.468-56.114zM268.868 78.15L78.185 268.833c-4.656 4.657-10.678 7.328-16.521 7.328h-.001c-2.874 0-6.969-.669-10.159-3.859l-13.038-13.037c-22.31-22.31-19.315-52.627-12.875-74.132 3.319-11.085 8.364-22.63 14.922-34.335l.961 25.033c.214 5.606 4.827 10.007 10.392 10.007.134 0 .27-.002.406-.008 5.743-.22 10.22-5.054 9.999-10.798l-2.066-53.86c-.001-.034-.007-.067-.009-.103 8.369-10.962 17.913-21.849 28.485-32.421a336.627 336.627 0 0116.433-15.38l.934 44.891c.118 5.673 4.753 10.19 10.4 10.19l.221-.003c5.746-.119 10.308-4.875 10.188-10.621l-1.268-60.882c17.72-12.956 35.496-22.747 52.32-28.821l2.531 21.431c.625 5.294 5.12 9.188 10.321 9.188.408 0 .82-.024 1.234-.073 5.708-.674 9.789-5.848 9.114-11.556l-2.903-24.565c5.731-1.053 11.289-1.607 16.615-1.607 17.837 0 32.8 5.92 44.475 17.595l.035.033 13.004 13.004c6.293 6.29 4.704 18.506-3.467 26.678z" data-original="#000000" class="active-path" data-old_color="#000000" fill="#4A5568"/></svg>