<svg xmlns="http://www.w3.org/2000/svg" width="512" height="512"><path d="M387.106 167.497c-5.857-5.857-15.354-5.858-21.212.001L220.705 312.685l-74.599-74.597c-5.857-5.857-15.355-5.858-21.213.001-5.857 5.858-5.857 15.355 0 21.213l85.205 85.203a14.953 14.953 0 0010.606 4.393c3.839 0 7.678-1.464 10.606-4.394L387.106 188.71c5.858-5.857 5.858-15.355 0-21.213z" data-original="#000000" class="active-path" data-old_color="#000000" fill="#4A5568"/><path d="M437.019 74.981C388.667 26.629 324.379 0 256 0 187.62 0 123.333 26.629 74.981 74.981 26.628 123.334 0 187.621 0 256c0 68.381 26.628 132.668 74.981 181.02C123.332 485.372 187.62 512 256 512s132.667-26.628 181.019-74.98C485.371 388.668 512 324.381 512 256c0-68.379-26.629-132.666-74.981-181.019zM256 482C131.383 482 30 380.617 30 256S131.383 30 256 30s226 101.383 226 226-101.383 226-226 226z" data-original="#000000" class="active-path" data-old_color="#000000" fill="#4A5568"/></svg>