<svg xmlns="http://www.w3.org/2000/svg" width="512" height="512"><path d="M495.66 260.07c-1.02-23.08-9.91-53.27-23.22-78.38-16.81-31.73-37.92-50.27-59.95-52.88-4.07-14.98-10.09-30.49-17.48-44.43-18.18-34.31-41.39-53.2-65.34-53.2-23.96 0-47.17 18.89-65.35 53.2-3.79 7.15-7.22 14.71-10.2 22.4-2.99-7.69-6.42-15.25-10.21-22.4-18.18-34.31-41.39-53.2-65.34-53.2-23.96 0-47.17 18.89-65.35 53.2-7.49 14.14-13.58 29.89-17.66 45.07-20.6 4.24-40.19 22.41-56 52.24-13.31 25.11-22.2 55.3-23.22 78.38H0v88.17h26.05l24.73 132.58h109.11l12.37-66.29h17.06l12.36 66.29h109.11l12.37-66.29h16.58l12.37 66.29h109.11l24.73-132.58H512v-88.17h-16.34zm-107.34-92.16c6.5-6.11 12.95-9.42 18.78-9.42 3.51 0 7.24 1.2 11.08 3.49 9.22 5.5 19.03 17.29 27.76 33.76 10.78 20.35 18.56 46.01 19.69 64.33H348.57c.12-2.06.34-4.21.63-6.44 1.39-10.7 4.6-23.13 9.07-35.29 2.86-7.82 6.24-15.53 9.99-22.6 6.33-11.94 13.23-21.42 20.06-27.83zm-97.49-69.49c12.36-23.32 26.88-37.24 38.84-37.24 11.95 0 26.47 13.92 38.83 37.24 5.97 11.27 11.02 24.15 14.53 36.52-15.12 8.22-29.29 24.13-41.27 46.75-3.8 7.16-7.22 14.73-10.21 22.43-2.99-7.7-6.41-15.27-10.21-22.43-12.85-24.24-28.2-40.79-44.55-48.41 3.47-11.85 8.34-24.1 14.04-34.86zm-53.61 69.49c1.28-1.2 2.55-2.3 3.82-3.27 5.19-4.01 10.27-6.15 14.96-6.15 3.51 0 7.24 1.2 11.08 3.49 1.31.78 2.63 1.69 3.97 2.73 8.02 6.22 16.3 16.9 23.79 31.03 4.12 7.77 7.79 16.31 10.82 24.92 4.14 11.71 7.09 23.55 8.34 33.75.24 1.95.42 3.84.53 5.66H197.47c.12-2.06.34-4.21.63-6.44 1.39-10.7 4.6-23.13 9.07-35.29 2.86-7.82 6.24-15.53 9.99-22.6 6.33-11.94 13.23-21.42 20.06-27.83zm-97.49-69.49c12.36-23.32 26.88-37.24 38.84-37.24 11.95 0 26.47 13.92 38.83 37.24 5.97 11.27 11.02 24.15 14.53 36.52-15.12 8.22-29.29 24.13-41.27 46.75-3.8 7.16-7.22 14.73-10.21 22.43-2.99-7.7-6.41-15.27-10.21-22.43-12.85-24.24-28.2-40.79-44.55-48.41 3.47-11.85 8.34-24.1 14.04-34.86zm-73.67 97.32c7.52-14.18 15.83-24.89 23.88-31.1 5.19-4.01 10.27-6.15 14.96-6.15 4.71 0 9.83 2.16 15.05 6.22 8.02 6.22 16.3 16.9 23.79 31.03 4.12 7.77 7.79 16.31 10.82 24.92 4.14 11.71 7.09 23.55 8.34 33.75.24 1.95.42 3.84.53 5.66H46.37c1.13-18.32 8.91-43.98 19.69-64.33zm370.23 255.08h-59.26l-12.37-66.29h-66.42l-12.37 66.29H226.6l-12.36-66.29h-66.9l-12.37 66.29H75.71L56.57 348.24h398.86l-19.14 102.58zM482 318.24H30v-28.17h452v28.17z" data-original="#000000" class="active-path" data-old_color="#000000" fill="#4A5568"/></svg>