<svg height="512" width="512" xmlns="http://www.w3.org/2000/svg"><path d="M433.906 254.403l-5.866-47.459c-3.305-26.741-14.27-51.243-31.255-71.029H436c8.284 0 15-6.716 15-15v-60c0-8.284-6.716-15-15-15h-60c-24.813 0-45 20.187-45 45v15h-30c-8.284 0-15 6.716-15 15s6.716 15 15 15h40.889l6.897 112.865c1.227 20.076-14.667 37.135-34.935 37.135H271c-8.271 0-15-6.729-15-15v-45h9c8.284 0 15-6.716 15-15v-17c0-31.981-26.019-58-58-58h-41v-75c0-8.284-6.716-15-15-15H16c-8.284 0-15 6.716-15 15 .005 34.211-.014 148.314.025 149.5-.287 8.646 6.635 15.5 14.975 15.5h17.455C.436 286.132 0 357.504 0 360.915c0 8.284 6.716 15 15 15h11.647c-3.464 27.646 7.719 55.846 30.608 73.435 55.155 42.382 137.06-1.915 128.098-73.435h146.295c-3.464 27.646 7.719 55.846 30.608 73.435 56.251 43.224 136.924-2.992 128.098-73.435H497c8.284 0 15-6.716 15-15 0-49.016-32.776-91.467-78.094-106.512zM361 90.915c0-8.271 6.729-15 15-15h45v30h-60zm-139 75c15.439 0 28 12.561 28 28v2h-69v-30zm-146-90v30c0 8.284 6.716 15 15 15s15-6.716 15-15v-30h45v120H31v-120zm150 150v45c0 24.813 20.187 45 45 45h42.851c37.413 0 67.162-31.615 64.879-68.965l-5.657-92.576c13.718 15.554 22.566 34.996 25.193 56.25l7.087 57.341a14.999 14.999 0 0011.498 12.772c33.205 7.701 57.769 34.338 63.717 65.178H224.924c-7.301-50.816-51.12-90-103.924-90H52.17c4.513-10.367 9.948-20.535 16.485-30zm-195.206 120c1.144-13.96 3.942-36.146 10.729-60H61v15c0 8.284 6.716 15 15 15s15-6.716 15-15v-15h30v15c0 8.284 6.716 15 15 15s15-6.716 15-15v-8.719c22.033 9.657 38.574 29.594 43.491 53.719H30.794zm44.74 79.646c-15.343-11.79-22.272-31.208-18.514-49.646h97.959c9.231 45.292-42.873 77.748-79.445 49.646zm365.932 0c-36.508 28.053-88.693-4.27-79.445-49.646h97.959c3.758 18.439-3.172 37.856-18.514 49.646z"/></svg>