<svg xmlns="http://www.w3.org/2000/svg" viewBox="0 0 512.001 512.001" width="512" height="512"><path d="M256.21 0L2.316 439.872l13.029 7.522c73.278 42.303 156.346 64.607 240.487 64.607 1.309 0 2.623-.005 3.932-.017 83.004-.686 164.91-22.899 236.863-64.237l13.057-7.502L256.21 0zm114.416 259.028l36.388 63.2a36.489 36.489 0 01-20.021 5.983c-20.138 0-36.52-16.382-36.52-36.52 0-14.115 8.058-26.609 20.153-32.663zm-229.201.029c12.063 6.063 20.1 18.544 20.1 32.634 0 20.138-16.382 36.52-36.52 36.52a36.469 36.469 0 01-20.036-5.995l36.456-63.159zm-51.508 89.237a66.524 66.524 0 0035.088 10.009c36.729 0 66.61-29.882 66.61-66.61 0-25.086-13.976-47.39-35.13-58.728L256.177 60.25l99.416 172.667c-21.201 11.325-35.21 33.647-35.21 58.775 0 36.729 29.882 66.61 66.61 66.61a66.54 66.54 0 0035.044-9.981l15.035 26.114c-115.819 50.445-246.909 50.325-362.056-.326l14.901-25.815zm-46.373 80.342l16.347-28.32A479.812 479.812 0 00256.2 442.283c66.69 0 133.472-13.88 195.975-41.619l16.28 28.275c-132.519 70.331-292.68 70.216-424.911-.303z" data-original="#000000" class="active-path" data-old_color="#000000" fill="#4A5568"/><path d="M259.008 135.673c-25.287 0-45.859 20.572-45.859 45.859 0 25.287 20.573 45.859 45.859 45.859 25.287 0 45.859-20.572 45.859-45.859 0-25.287-20.572-45.859-45.859-45.859zm0 61.627c-8.694 0-15.768-7.074-15.768-15.768 0-8.695 7.074-15.768 15.768-15.768s15.768 7.074 15.768 15.768c0 8.695-7.074 15.768-15.768 15.768zM180.42 360.961l27.832-10.038 10.038 27.831-27.831 10.039zm93.885-107.679h29.585v29.585h-29.585zm-78.611-9.936l28.339-8.49 8.49 28.338-28.338 8.49zm94.497 136.787l7.932-28.502 28.502 7.932-7.931 28.502zm-71.434-66.257l20.255-22.248 44.496 40.512-20.256 22.247z" data-original="#000000" class="active-path" data-old_color="#000000" fill="#4A5568"/></svg>