<svg height="512" viewBox="0 0 512.003 512.003" width="512" xmlns="http://www.w3.org/2000/svg"><path d="M511.995 256.476c.001-.159.006-.317.006-.476 0-68.38-26.628-132.667-74.98-181.019S324.382 0 256.002 0 123.335 26.629 74.983 74.981C26.749 123.215.138 187.307.008 255.499v.032c-.001.156-.006.312-.006.469 0 68.379 26.628 132.667 74.98 181.019 48.319 48.319 112.552 74.943 180.879 74.979.05.001.099.005.149.005.026 0 .053-.004.079-.004 68.347-.022 132.6-26.648 180.932-74.98 48.231-48.232 74.842-112.321 74.974-180.51v-.033zM376.79 446.931l-22.005-14.53c-6.914-4.564-16.218-2.661-20.783 4.252s-2.661 16.218 4.252 20.783l8.415 5.557c-25.123 11.048-52.621 17.648-81.501 18.807l-11.821-23.641c-3.705-7.409-12.715-10.413-20.125-6.708s-10.413 12.715-6.708 20.125l4.52 9.04a224.258 224.258 0 01-79.989-24.515l1.583-26.349c.497-8.27-5.804-15.376-14.074-15.873-8.247-.484-15.376 5.804-15.873 14.074l-.6 9.978a227.821 227.821 0 01-57.009-61.137L79.6 354.788c4.564-6.914 2.66-16.218-4.254-20.782s-16.218-2.66-20.782 4.254l-5.555 8.414c-11.048-25.123-17.649-52.621-18.808-81.501L53.84 253.35c7.409-3.706 10.411-12.716 6.706-20.125-3.706-7.409-12.715-10.411-20.125-6.706l-9.035 4.519a224.242 224.242 0 0124.515-79.991l26.348 1.583c.306.018.611.027.914.027 7.872 0 14.48-6.138 14.959-14.101.496-8.27-5.804-15.376-14.073-15.873l-9.979-.6a227.818 227.818 0 0161.141-57.012L157.22 79.6a14.929 14.929 0 008.25 2.483c4.87 0 9.648-2.369 12.532-6.738 4.564-6.914 2.659-16.218-4.255-20.782l-8.414-5.554c25.122-11.048 52.619-17.648 81.496-18.807l11.825 23.641c2.629 5.255 7.925 8.293 13.427 8.293 2.255 0 4.544-.51 6.698-1.588 7.409-3.706 10.412-12.716 6.706-20.125l-4.52-9.037a224.226 224.226 0 0179.994 24.517l-1.58 26.349c-.496 8.27 5.806 15.375 14.076 15.871.306.019.609.027.912.027 7.873 0 14.482-6.139 14.959-14.103l.598-9.973a227.807 227.807 0 0157.009 61.141l-14.53 22.004c-4.565 6.913-2.662 16.218 4.251 20.783a14.926 14.926 0 008.252 2.484c4.87 0 9.646-2.368 12.531-6.736l5.557-8.415c11.047 25.123 17.647 52.621 18.806 81.499l-23.64 11.82c-7.41 3.705-10.413 12.715-6.708 20.125 2.628 5.257 7.925 8.296 13.428 8.296 2.254 0 4.543-.51 6.696-1.587l9.039-4.52a224.244 224.244 0 01-24.516 79.99l-26.352-1.58c-8.271-.489-15.375 5.806-15.871 14.075-.496 8.27 5.806 15.375 14.075 15.871l9.978.598a227.831 227.831 0 01-61.139 57.009z"/><path d="M256.002 96.399c-88.003 0-159.599 71.597-159.599 159.601 0 88.003 71.596 159.6 159.599 159.6S415.601 344.004 415.601 256 344.005 96.399 256.002 96.399zm0 192.8c-18.307 0-33.2-14.893-33.2-33.199 0-18.307 14.894-33.2 33.2-33.2 18.307 0 33.2 14.894 33.2 33.2s-14.893 33.199-33.2 33.199zM126.403 256c0-18.24 3.795-35.609 10.626-51.368l58.313 33.666c-1.643 5.621-2.541 11.557-2.541 17.702s.898 12.08 2.541 17.701l-58.314 33.666c-6.829-15.759-10.625-33.127-10.625-51.367zm190.258-17.702l58.314-33.666c6.83 15.759 10.626 33.128 10.626 51.368s-3.795 35.608-10.626 51.367l-58.314-33.666c1.643-5.621 2.541-11.556 2.541-17.701s-.898-12.081-2.541-17.702zm43.279-59.627l-58.311 33.665c-8.192-8.557-18.754-14.821-30.626-17.723v-67.341c36.319 4.206 68.112 23.48 88.937 51.399zm-118.938-51.399v67.341c-11.873 2.902-22.434 9.165-30.626 17.723l-58.312-33.665c20.825-27.919 52.618-47.193 88.938-51.399zm-88.938 206.056l58.312-33.665c8.192 8.557 18.753 14.821 30.626 17.723v67.341c-36.32-4.206-68.113-23.479-88.938-51.399zm118.938 51.399v-67.341c11.872-2.902 22.434-9.165 30.626-17.723l58.312 33.665c-20.825 27.92-52.618 47.193-88.938 51.399z"/></svg>