<svg xmlns="http://www.w3.org/2000/svg" viewBox="0 0 512 512"><path d="M511.115 401.981c-.202-.562-20.316-56.61-32.434-101.833l-1.608-6.001-130.639-75.425-104.282 20.622-46.215-26.682c-16.192-9.349-35.056-11.834-53.117-6.993-18.061 4.839-33.155 16.422-42.504 32.614-12.581 21.791-12.067 47.601-.931 68.279-3.059 16.2-17.309 28.496-34.384 28.496-19.299 0-35-15.701-35-35s15.701-35 35-35h15v-94.302c20.264-6.386 35-25.352 35-47.698S100.264 81.747 80 75.36V.059H50V75.36c-20.264 6.386-35 25.352-35 47.698s14.736 41.312 35 47.698v66.049c-28.635 6.788-50 32.572-50 63.253 0 35.841 29.159 65 65 65 24.488 0 45.849-13.617 56.93-33.671a70.49 70.49 0 003.911 2.46c-2.861 10.228-2.95 21.071-.13 31.598 4.148 15.48 14.076 28.419 27.956 36.432 9.245 5.338 19.505 8.064 29.903 8.064a60.37 60.37 0 0015.626-2.069c10.526-2.821 19.872-8.319 27.298-15.909l76.015 43.887c-2.86 10.227-2.949 21.069-.129 31.595 4.148 15.48 14.076 28.419 27.956 36.432 9.246 5.338 19.506 8.064 29.903 8.064a60.37 60.37 0 0015.626-2.069c10.868-2.912 20.474-8.683 28.012-16.66a74.145 74.145 0 0026.174 4.774c6.514 0 13.073-.856 19.533-2.588 19.351-5.185 35.524-17.595 45.559-34.977L512 431.058v-26.615l-.885-2.462zM45 123.059c0-11.028 8.972-20 20-20s20 8.972 20 20-8.972 20-20 20-20-8.972-20-20zm164.647 241.857c-4.007 6.939-10.476 11.904-18.216 13.978-7.739 2.075-15.825 1.011-22.765-2.997-6.939-4.007-11.903-10.476-13.978-18.216-2.074-7.74-1.009-15.825 2.997-22.765 5.551-9.614 15.655-14.994 26.032-14.994a29.81 29.81 0 0114.949 4.013c14.326 8.271 19.252 26.655 10.981 40.981zm176.669 102c-4.007 6.939-10.476 11.904-18.216 13.978-7.74 2.075-15.824 1.011-22.765-2.997-6.94-4.007-11.904-10.476-13.978-18.216s-1.01-15.825 2.997-22.765c5.551-9.613 15.656-14.994 26.032-14.994a29.81 29.81 0 0114.949 4.013c14.327 8.271 19.252 26.655 10.981 40.981zm95.685-43.856H482l-12.856 22.395c-6.01 10.41-15.713 17.856-27.324 20.967-7.752 2.078-15.732 2.045-23.279.012 6.301-25.308-4.519-52.804-28.205-66.479-24.167-13.954-54.109-9.126-72.817 9.921l-76.035-43.899c7.142-25.725-3.65-54.069-27.818-68.022-24.166-13.953-54.107-9.126-72.815 9.919-19.033-11.053-25.567-35.518-14.556-54.589 5.342-9.253 13.968-15.871 24.289-18.637 10.32-2.766 21.1-1.346 30.353 3.996l55.977 32.318 104.282-20.622 110.148 63.594c11.083 40.049 26.744 84.708 30.657 95.722v13.404z"/></svg>