<svg height="512pt" viewBox="0 -70 512 512" width="512pt" xmlns="http://www.w3.org/2000/svg"><path d="M507.605 140.965l-80.332-80.336a14.986 14.986 0 00-10.605-4.395h-65.336v-1.07C351.332 24.746 326.586 0 296.168 0h-241C24.746 0 0 24.746 0 55.164v200.84c0 30.418 24.746 55.16 55.168 55.16h10.605c6.97 34.336 37.383 60.258 73.743 60.258 36.355 0 66.773-25.922 73.746-60.258h85.476c6.973 34.336 37.387 60.258 73.746 60.258s66.774-25.922 73.746-60.258H497c8.285 0 15-6.715 15-15V151.57a14.98 14.98 0 00-4.395-10.605zm-97.152-54.73l50.336 50.335H351.332V86.234zM30 256.003V55.164C30 41.29 41.29 30 55.168 30h241c13.875 0 25.164 11.29 25.164 25.164v185.879c-11.312 10.504-19.406 24.43-22.594 40.121h-85.476c-6.973-34.328-37.39-60.25-73.746-60.25s-66.77 25.922-73.743 60.25H55.168C41.289 281.164 30 269.88 30 256.004zm109.516 85.418c-24.95 0-45.246-20.305-45.246-45.258 0-24.95 20.296-45.25 45.246-45.25 24.953 0 45.25 20.3 45.25 45.25 0 24.953-20.301 45.258-45.25 45.258zm232.968 0c-24.953 0-45.25-20.305-45.25-45.258 0-24.95 20.297-45.25 45.25-45.25 24.95 0 45.25 20.3 45.25 45.25 0 24.953-20.3 45.258-45.25 45.258zm73.746-60.258c-6.972-34.328-37.386-60.25-73.746-60.25a74.92 74.92 0 00-21.152 3.05V166.57H482v114.598h-35.77zm0 0"/></svg>