<svg xmlns="http://www.w3.org/2000/svg" viewBox="0 0 512 512"><path fill="#ffad61" d="M425.397 221.178h-75.399v184.979h151.803v-97.851h-76.404z"/><path fill="#ffe6b8" d="M29.3 149.796h320.694v191.011H29.3z"/><path fill="#ffad61" d="M29.3 340.807h320.694v65.346H29.3z"/><g fill="#ffe6b8"><circle cx="94.649" cy="406.153" r="36.192"/><circle cx="424.389" cy="406.153" r="36.192"/><path d="M426.067 221.178h-.67v87.128h76.404v-.67z"/></g><circle cx="103.012" cy="162.464" r="92.813" fill="#ffad61"/><g fill="#4d3d36"><path d="M379.144 416.356c4.661 20.687 23.172 36.191 45.247 36.191s40.586-15.504 45.248-36.191h32.162c5.633 0 10.199-4.566 10.199-10.199v-98.521c0-2.472-.898-4.861-2.527-6.72l-75.734-86.458a10.2 10.2 0 00-7.672-3.479h-65.869V149.8c0-5.633-4.566-10.199-10.199-10.199H203.463c-10.428-45.834-51.506-80.148-100.451-80.148C46.212 59.453 0 105.664 0 162.465c0 22.23 7.079 42.839 19.101 59.689V373.84h-8.902C4.566 373.84 0 378.406 0 384.039s4.566 10.199 10.199 10.199h8.902v11.918c0 5.633 4.566 10.199 10.199 10.199h20.099c4.661 20.687 23.172 36.191 45.247 36.191s40.586-15.504 45.248-36.191h239.251v.001zm56.452-168.821l44.299 50.572h-44.299v-50.572zm-95.797 83.077h-300.3v-87.098c17.511 13.753 39.571 21.963 63.512 21.963 56.8 0 103.012-46.212 103.012-103.012 0-.824-.012-1.646-.032-2.465h133.805l.003 170.612zM103.012 79.852c45.554 0 82.614 37.06 82.614 82.614s-37.06 82.614-82.614 82.614-82.614-37.06-82.614-82.614 37.06-82.614 82.614-82.614zM39.499 351.01h300.299v44.948H139.893c-4.661-20.688-23.172-36.192-45.248-36.192-22.075 0-40.586 15.504-45.247 36.192h-9.899V351.01zm55.147 81.139c-14.332 0-25.992-11.66-25.992-25.992s11.66-25.993 25.992-25.993 25.993 11.661 25.993 25.993c-.001 14.332-11.661 25.992-25.993 25.992zm329.745 0c-14.332 0-25.992-11.66-25.992-25.992s11.66-25.993 25.992-25.993 25.993 11.661 25.993 25.993c0 14.332-11.661 25.992-25.993 25.992zm-64.194-200.771h55v76.929c0 5.633 4.566 10.199 10.199 10.199h66.205v77.453h-21.963c-4.661-20.688-23.172-36.192-45.248-36.192-22.075 0-40.586 15.504-45.247 36.192h-18.947V231.378z"/><path d="M229.482 319.533h85.673c5.633 0 10.199-4.566 10.199-10.199s-4.566-10.199-10.199-10.199h-85.673c-5.633 0-10.199 4.566-10.199 10.199s4.566 10.199 10.199 10.199zm-31.617-20.398h-6.12c-5.633 0-10.199 4.566-10.199 10.199s4.566 10.199 10.199 10.199h6.12c5.633 0 10.199-4.566 10.199-10.199s-4.566-10.199-10.199-10.199zm-79.627-107.019c1.992 1.992 4.602 2.987 7.212 2.987s5.221-.995 7.212-2.987c3.983-3.983 3.983-10.441 0-14.425l-19.451-19.451v-56.97c0-5.633-4.566-10.199-10.199-10.199s-10.199 4.566-10.199 10.199v61.195c0 2.705 1.075 5.299 2.987 7.212l22.438 22.439z"/></g></svg>